<svg id="Layer_1_Image" data-name="Layer 1 Image" xmlns="http://www.w3.org/2000/svg" viewBox="0 0 290.89 221.96"><defs><style>.cls-1{fill:#102133;}.cls-2{fill:#5862ac;}.cls-3{fill:#f9fcfd;}.cls-4{fill:#fbd25b;}.cls-5{fill:#98c6da;}.cls-6{fill:#f48579;}.cls-7{fill:#535ca9;}.cls-8{fill:#8689c2;}.cls-9{fill:#5e68b0;}.cls-10{fill:#fbc3a9;}.cls-11{fill:#1f282f;}.cls-12{fill:#efa78c;}.cls-13{fill:#48488f;}.cls-14{fill:#f1697e;}.cls-15{fill:#414087;}.cls-16{fill:#525199;}.cls-17{fill:#fbbfa4;}.cls-18{fill:#f2737e;}.cls-19{fill:#152d48;}.cls-20{fill:#3c397e;}.cls-21{fill:#ee7d7e;}.cls-22{fill:#bc8968;}.cls-23{fill:#253d56;}.cls-24{fill:#bee1f3;}.cls-25{fill:#d9b65b;}.cls-26{fill:#f0f1f1;}.cls-27{fill:#dadbdf;}.cls-28{fill:#aa6566;}.cls-29{fill:#4855a5;}.cls-30{fill:#f9ba9e;}</style></defs><path class="cls-1" d="M142.5,129.48l0-24c0-.47,0-.94,0-1.6H275.08v11.51c3.1,0,5.94,0,8.77,0,.7,0,1.41.11,2.11.17v66.34H142.51V143.87l3.85-2.84a6.2,6.2,0,0,0,.7-6,5.67,5.67,0,0,0-.7-1.62C145.12,132,143.79,130.77,142.5,129.48Zm50.3,39.69a2.2,2.2,0,0,0-.36,0h-34a1.63,1.63,0,0,0-.59,0c-.18.09-.46.32-.43.44a.83.83,0,0,0,.43.56,3.8,3.8,0,0,0,1.07,0h23c3.64,0,7.27,0,10.91-.05L193,170v-.65Zm-31.56-44c-.38,1.44.6,1.12,1.23,1.12q54.66,0,109.33,0c.16,0,.34.06.47,0a7.56,7.56,0,0,0,.86-.52,4.4,4.4,0,0,0-.81-.57,1.86,1.86,0,0,0-.71,0H161.24Zm118.1,34.2c.33-1.38-.72-.95-1.27-.95q-54.6,0-109.22,0c-.24,0-.53-.08-.71,0a4.53,4.53,0,0,0-.77.69l.24.26Zm-15.14-23-.28-.34h-90c-.3,1.33.69.91,1.21.91q43.83,0,87.65,0c.2,0,.43.07.59,0A7,7,0,0,0,264.2,136.36Zm-10.31-4.76c.43-1.29-.53-1-1.1-1H168.73c-.2,0-.45-.07-.59,0a6.15,6.15,0,0,0-.77.68l.23.28Zm-92.67,32.23c-.27,1.3.65.92,1.17.92H246.3c.2,0,.44.07.59,0a5.89,5.89,0,0,0,.78-.64l-.23-.28ZM157.61,120c-.34,1.3.64.91,1.17.91q38.11,0,76.23,0h.6c.83,0,.79-.38.55-.93Zm24.77,21.37c-.35,1,.13,1.09.87,1.09h59.46c.15,0,.31,0,.56-.07l-.06-1Zm-8.67,12.36.21.29h60.81c.28-1.26-.63-.91-1.15-.91H175c-.16,0-.35-.06-.47,0A9.65,9.65,0,0,0,173.71,153.68Zm82.36-5.61-.3-.38H183.39c-.16,0-.36-.06-.47,0a7.94,7.94,0,0,0-.75.68l.24.31h72.37c.16,0,.36.05.48,0A7.8,7.8,0,0,0,256.07,148.07ZM149,108.1a1.42,1.42,0,0,0-1.56-1.4,1.36,1.36,0,0,0-1.43,1.55,1.33,1.33,0,0,0,1.52,1.45C148.43,109.68,148.94,109.1,149,108.1Zm10.85,1.76a1.41,1.41,0,0,0,1.32-1.55,1.38,1.38,0,0,0-1.56-1.43,1.36,1.36,0,0,0-1.45,1.53C158.17,109.33,158.74,109.84,159.83,109.86ZM155.24,108a1.29,1.29,0,0,0-1.47-1.24,1.49,1.49,0,0,0,0,3C154.68,109.69,155.26,109.19,155.24,108Zm-5.46,22.69v2.66l1.19-.09v-2.57Zm-.05-4H151v-2.43h-1.28Zm.05,36.44v2.65l1.2-.09v-2.56Zm0-25.89v2.58l1.22-.09v-2.49ZM151,152.71v-2.65l-1.21.09v2.56Zm-1.21-6.47,1.24-.07v-2.51h-1.24ZM151,159.18v-2.54h-1.23v2.54Zm-1.31,10.4.08,1.19H151v-1.19Zm.07-50.59v1.16H151V119Z" transform="translate(-23.56 -64.6)"/><path class="cls-2" d="M106.92,185.37c.89,2.29,1.8,4.57,2.66,6.88.54,1.44,1,2.91,1.5,4.37a2,2,0,0,0-.1.63c.37,2,.84,4.05,1.12,6.09.36,2.59.59,5.19.86,7.79.09.88-.27,1.14-1.15.85a5.75,5.75,0,0,0-1.76-.23c-11.77,0-23.54,0-35.31,0a23,23,0,0,1-3.27-.46l-1.57-2.12a.55.55,0,0,0-.06.54c3.84,10,8,19.83,12.79,29.41.22.46.4.95.6,1.43-.19.57-.2,1.41-.59,1.66-2.11,1.35-4.32,2.54-6.49,3.8-5.08,2.92-10.14,5.86-15.22,8.76-2.38,1.37-4.8,2.67-7.19,4-.06-4.49-.13-9-.17-13.46,0-1.59,0-3.18.06-4.76.11-3.86.11-7.72.36-11.56.3-4.64.81-9.26,1.24-13.89a4.12,4.12,0,0,1,.18-.69,6.86,6.86,0,0,0,1.46-.43c3.43-1.95,6.82-4,10.26-5.89a1.32,1.32,0,0,0,.75-1.71,38.74,38.74,0,0,1-1-11.46c.26-3,1.09-3.77,4-3.77h32.61c1.5,0,1.62-.16,1.32-1.58a13.86,13.86,0,0,1-.35-2.11,1.4,1.4,0,0,1,.38-1.1A12.39,12.39,0,0,1,106.92,185.37Z" transform="translate(-23.56 -64.6)"/><path class="cls-3" d="M272.92,269.75l39.87,0c1.64,0,1.64,0,1.64,1.6,0,2.55-.06,5.11,0,7.66,0,1.09-.34,1.34-1.36,1.32-2.39-.05-4.79,0-7.18,0l-8.43,0H273.87l-.48,0h-93l-1.21.17-.34-.07-8.54-.05H164c-.05-.81-.09-1.44-.13-2.07,0-1.87.11-3.74.12-5.6,0-3,0-3,2.9-3l7.53,0c.47,0,.95,0,1.43,0h65.5l2,0Z" transform="translate(-23.56 -64.6)"/><path class="cls-4" d="M38.18,129.08V96.32h49v32.76Zm22.51-26.44a8.1,8.1,0,0,0-5.48,14,8,8,0,0,0,8.9,1.35,1.38,1.38,0,0,1,1.94.35c1.24,1.34,2.59,2.6,3.87,3.91.52.53,1,.65,1.49,0a6.82,6.82,0,0,1,.76-.76c.71-.58.59-1.08,0-1.67-1.27-1.21-2.46-2.51-3.75-3.7a1.46,1.46,0,0,1-.39-2A8.06,8.06,0,0,0,60.69,102.64Z" transform="translate(-23.56 -64.6)"/><path class="cls-5" d="M137.43,235.18A13.29,13.29,0,0,1,139,235h44.94c9.26,0,16.29,6,17.78,15.13.11.71.33.89,1,1,5.34.53,10.66,1.11,16,1.67l16.11,1.68,11.61,1.23c-1.69,3.11-3.41,6.21-5,9.36a1.84,1.84,0,0,1-2,1.1q-19.93,0-39.87,0a10.18,10.18,0,0,0-3.32-4.83c-1.52-1.13-3.18-2.05-4.78-3.06l-.29-.25h0a16.54,16.54,0,0,0-6.46-5.18c-5.18-2.66-10.78-3.55-16.55-3.7a9.77,9.77,0,0,1-4-.63C155.26,244.12,146.36,239.63,137.43,235.18Z" transform="translate(-23.56 -64.6)"/><path class="cls-6" d="M160.39,91.3H117.08V64.6h43.31Zm-22.6-6.79c1.24-4.81,2.47-9.52,3.72-14.33l-1.78-.37L136,84.15Zm5.83-4.84.69,1.53c2-.89,3.9-1.7,5.77-2.58a1.49,1.49,0,0,0,0-2.23c-1.89-.91-3.83-1.74-5.82-2.63l-.67,1.5,5.06,2.23Zm-9.74,0-5.11-2.19,5.11-2.22-.69-1.5c-2,.89-3.89,1.71-5.76,2.6-.67.31-.74,1.92-.07,2.23,1.89.91,3.83,1.72,5.83,2.61Z" transform="translate(-23.56 -64.6)"/><path class="cls-7" d="M71.47,211.26a23,23,0,0,0,3.27.46c11.77,0,23.54,0,35.31,0a5.75,5.75,0,0,1,1.76.23c.88.29,1.24,0,1.15-.85-.27-2.6-.5-5.2-.86-7.79-.28-2-.75-4.06-1.12-6.09a2,2,0,0,1,.1-.63c.48,1,1,1.91,1.45,2.91,2.48,6,4.9,12.1,7.41,18.13.42,1,.51,1.78-.52,2.4-1.15.91-2.75,1.61-3.29,2.8-.43.93.45,2.46.76,3.72,0,0,0,.08,0,.11-.14.43-.29.86-.44,1.29l-3.77,2.18a1,1,0,0,0-.35.08q-9.49,5.46-19,10.95a5.39,5.39,0,0,0-.82.77c-1.64.14-2-1.27-2.6-2.26q-8.55-13-17.08-26.1C72.38,212.84,71.94,212,71.47,211.26Z" transform="translate(-23.56 -64.6)"/><path class="cls-8" d="M286,115.59c-.7-.06-1.41-.16-2.11-.17-2.83,0-5.67,0-8.77,0V103.9c0-4.71.05-9.43,0-14.14,0-1,.28-1.28,1.28-1.28q17.61.06,35.24,0c1.07,0,1.36.33,1.35,1.37q0,12.16,0,24.33c0,1.18-.44,1.38-1.48,1.37q-12,0-24,0C287,115.54,286.48,115.57,286,115.59ZM297,111.38c2.83.19,3.92-.8,3.93-3.46,0-1.15-.07-2.32,0-3.47a2.24,2.24,0,0,1,.76-1.31c.5-.46.72-1.89.13-2.11-1-.36-.93-1.07-.93-1.84,0-1.08,0-2.16,0-3.23,0-2.52-1.29-3.58-3.91-3.23v1.66c1.35,0,1.67.73,1.58,1.88-.07.91,0,1.83,0,2.75a2.93,2.93,0,0,0,1.41,3,2.5,2.5,0,0,0-1.41,2.55c0,1-.05,2,0,3,.08,1.19-.13,2.09-1.6,2.1Zm-6.19,0v-1.74c-1.36,0-1.64-.78-1.59-1.89s0-2,0-3a2.56,2.56,0,0,0-1.46-2.78,2.3,2.3,0,0,0,1.45-2.49c0-1,.05-2,0-3-.08-1.22.16-2.15,1.56-2.19V92.66c-2.89,0-3.75.79-3.76,3.45a24.83,24.83,0,0,1,0,3.23,3.22,3.22,0,0,1-.89,1.62c-.46.48-.67,1.83-.08,2.05,1,.39,1,1.15,1,1.95,0,1,0,2,0,3C287.06,110.6,287.94,111.43,290.85,111.41Z" transform="translate(-23.56 -64.6)"/><path class="cls-9" d="M106.92,185.37a12.39,12.39,0,0,0-2,1,1.4,1.4,0,0,0-.38,1.1,13.86,13.86,0,0,0,.35,2.11c.3,1.42.18,1.58-1.32,1.58H71c-3,0-3.78.81-4,3.77a38.74,38.74,0,0,0,1,11.46,1.32,1.32,0,0,1-.75,1.71C63.69,210,60.3,212,56.87,214a6.86,6.86,0,0,1-1.46.43c.72-4,1.28-7.95,2.19-11.86A63.89,63.89,0,0,1,66.49,181a28,28,0,0,1,8.7-8.78,49.64,49.64,0,0,1,5.87-2.57c1.44.58,2.87,1.19,4.31,1.75q8.61,3.38,17.23,6.72Z" transform="translate(-23.56 -64.6)"/><path class="cls-10" d="M133.61,143.76A30.77,30.77,0,0,1,126,161.59c-3,3.37-6.23,6.48-9.39,9.68a3.5,3.5,0,0,1-4.54.75c-1.72-.91-3.54-1.64-5.31-2.45L101,164.7c.34,1.94.69,4.07,2.36,5.7a6.59,6.59,0,0,1,.74,1,19.72,19.72,0,0,1-3.72-1.41,16.75,16.75,0,0,1-8.29-14.1,15.86,15.86,0,0,0,8.64-3.44,3.3,3.3,0,0,1,.1.76c-.1,1.18-.32,2.36-.32,3.53a1.83,1.83,0,0,0,2.72,1.75,10.49,10.49,0,0,0,2.4-1.52c1.37-1.2,1.37-2,.08-3.23a8.21,8.21,0,0,1-2.64-6.4,6.79,6.79,0,0,1,3.34-5.81l2.49.37a6.57,6.57,0,0,1,.59.59c1.12,1.51,2.17,3,1.47,5.1a12.17,12.17,0,0,0-.42,3.31c0,.4.34.82.53,1.23.42-.23,1-.36,1.23-.71a14.17,14.17,0,0,0,1.62-2.92c.89-2.36,2.4-3.66,5-3.55,1.41.06,2-.86,2.11-2.2a9.73,9.73,0,0,0,0-1.08c.24-1.32.45-2.65.72-4a1.23,1.23,0,0,1,1.66-1,11,11,0,0,1,3.09,1.24,40.76,40.76,0,0,1,3.64,3.07Zm-23.75,2.53c0-.31.08-.67-.06-.85-.52-.63-1-1.5-1.72-1.72-.87-.28-1.53.5-1.8,1.38a5.76,5.76,0,0,0-.45,2.07,10.17,10.17,0,0,0,.81,2.91,1.24,1.24,0,0,0,1.18.34c.29-.13.42-.74.49-1.16s-.19-.73-.11-1,.46-.7.62-.67C110.14,147.86,109.77,146.89,109.86,146.29Z" transform="translate(-23.56 -64.6)"/><path class="cls-11" d="M199.55,266.14q19.94,0,39.87,0a1.84,1.84,0,0,0,2-1.1c1.62-3.15,3.34-6.25,5-9.36q4.75-8.62,9.51-17.25,8.13-14.82,16.23-29.65c.17-.31.36-.61.59-1l3.49,1.9-3.78,6.93q-10.68,19.54-21.38,39.09c-.11.2-.21.42-.31.64l-7.35,13.42-2,0h-65.5c-.48,0-1,0-1.43,0l0-2a18.82,18.82,0,0,0,7.89-1.66h9.46c.6.39,1.23.73,1.79,1.17a5.42,5.42,0,0,0,4.28,1.06C199.59,268.09,199.8,267.77,199.55,266.14Z" transform="translate(-23.56 -64.6)"/><path class="cls-12" d="M116.48,228c.15-.43.3-.86.44-1.29,0,0,0-.07,0-.11-.31-1.26-1.19-2.79-.76-3.72.54-1.19,2.14-1.89,3.29-2.8,2,2.76,3.87,5.56,5.91,8.27a7.22,7.22,0,0,0,2.32,1.79c3.24,1.73,6.52,3.38,9.78,5.06,8.93,4.45,17.83,8.94,26.8,13.31a9.77,9.77,0,0,0,4,.63c5.77.15,11.37,1,16.55,3.7a16.54,16.54,0,0,1,6.46,5.18l-3.66-.94a55.68,55.68,0,0,0-15.81-1.43c-.19-.06-.38-.1-.57-.18-5.53-2.26-11.05-4.55-16.59-6.78q-11.48-4.62-23-9.14c-2.82-1.11-5.69-2.07-8.53-3.09-.65-.75-1.36-1.46-2-2.25C119.53,232.14,118,230.06,116.48,228Z" transform="translate(-23.56 -64.6)"/><path class="cls-5" d="M53.63,240.52c0,1.58-.08,3.17-.06,4.76,0,4.49.11,9,.17,13.46,0,.76-.05,1.51,0,2.27q.25,12.76.52,25.52H44.11c0-.27,0-.55-.08-.83q-1-6.52-2-13.06c.79-2.53,1.6-5.06,2.36-7.61,1.83-6.13,3.58-12.28,5.49-18.38A13.24,13.24,0,0,1,53.63,240.52Z" transform="translate(-23.56 -64.6)"/><path class="cls-13" d="M142.5,129.48c1.29,1.29,2.62,2.54,3.86,3.89a5.67,5.67,0,0,1,.7,1.62,13.41,13.41,0,0,1-1.75.25H95.69a15.31,15.31,0,0,1-1.88-.23l2.62-6.95q20,0,40.06,0a8.11,8.11,0,0,0,1.89-.45Z" transform="translate(-23.56 -64.6)"/><path class="cls-14" d="M32.44,262.83a8.42,8.42,0,0,1-4.94-7.1c-.37-3.48-.89-6.94-1.34-10.42a8.93,8.93,0,0,0,1.55-.56c1.78-1,3.51-2,5.28-3,2.73-1.54,5.48-3,8.23-4.56q1.17,8.42,2.33,16.81a8.09,8.09,0,0,1-3.29,8A8.74,8.74,0,0,1,32.44,262.83Z" transform="translate(-23.56 -64.6)"/><path class="cls-15" d="M93.81,135a15.31,15.31,0,0,0,1.88.23h49.62a13.41,13.41,0,0,0,1.75-.25,6.2,6.2,0,0,1-.7,6,8.17,8.17,0,0,0-1.52-.25c-4.89.06-9.77.15-14.65.24a40.76,40.76,0,0,0-3.64-3.07,11,11,0,0,0-3.09-1.24,1.23,1.23,0,0,0-1.66,1c-.27,1.31-.48,2.64-.72,4-3.55,0-7.1,0-10.65,0a10,10,0,0,0-1.52.22l-2.49-.37a8.67,8.67,0,0,0-1.72-.32c-4.13,0-8.25,0-12.38,0C92.82,139.16,93.31,137.09,93.81,135Z" transform="translate(-23.56 -64.6)"/><path class="cls-5" d="M243.4,269.74l7.35-13.42a81.13,81.13,0,0,1,9.66,1.15c6.54,1.56,10.69,5.8,12.51,12.28Z" transform="translate(-23.56 -64.6)"/><path class="cls-16" d="M138.38,127.58a8.11,8.11,0,0,1-1.89.45q-20,0-40.06,0a17.08,17.08,0,0,1,5.21-7A7.31,7.31,0,0,1,109,120a2.91,2.91,0,0,0,1.68.05,11.67,11.67,0,0,1,7.52-.14,4.53,4.53,0,0,1,1.89,1c1.39,1.63,3,1.63,5,1.35a8.89,8.89,0,0,1,8.69,3.47,2.54,2.54,0,0,0,1.15.72C136,126.82,137.22,127.19,138.38,127.58Z" transform="translate(-23.56 -64.6)"/><path class="cls-17" d="M92.1,155.94a16.75,16.75,0,0,0,8.29,14.1,19.72,19.72,0,0,0,3.72,1.41l1.37.71-2.88,5.92q-8.61-3.36-17.23-6.72c-1.44-.56-2.87-1.17-4.31-1.75q3.91-6.2,7.82-12.39c.27-.43.49-.9.73-1.36Z" transform="translate(-23.56 -64.6)"/><path class="cls-18" d="M41.22,237.16c-2.75,1.52-5.5,3-8.23,4.56-1.77,1-3.5,2.05-5.28,3a8.93,8.93,0,0,1-1.55.56c-.48-3.4-1-6.81-1.45-10.22-.14-1.06-.24-2.13-.37-3.19a9.87,9.87,0,0,0,1.43-.56c2.9-1.65,5.78-3.35,8.68-5,1.62-.91,3.29-1.75,4.93-2.62.46,3.21.93,6.43,1.38,9.65C40.94,234.64,41.07,235.9,41.22,237.16Z" transform="translate(-23.56 -64.6)"/><path class="cls-19" d="M32.44,262.83a8.74,8.74,0,0,0,7.82-.88L42,272.64q1,6.54,2,13.06c0,.28,0,.56.08.83l-8,0Q34.28,274.66,32.44,262.83Z" transform="translate(-23.56 -64.6)"/><path class="cls-20" d="M92.1,155.94l-2.49-.08q1.35-7.31,2.71-14.62c4.13,0,8.25,0,12.38,0a8.67,8.67,0,0,1,1.72.32,6.79,6.79,0,0,0-3.34,5.81,8.91,8.91,0,0,1-2.34,5.11A15.86,15.86,0,0,1,92.1,155.94Z" transform="translate(-23.56 -64.6)"/><path class="cls-21" d="M39.38,223.73c-1.64.87-3.31,1.71-4.93,2.62-2.9,1.64-5.78,3.34-8.68,5a9.87,9.87,0,0,1-1.43.56c-.28-3-1-5.93-.73-8.85.31-4.1,4.17-6.76,8.58-6.53A7.83,7.83,0,0,1,39.38,223.73Z" transform="translate(-23.56 -64.6)"/><path class="cls-22" d="M297.48,280.38l8.43,0,0,6.11-8.49,0Z" transform="translate(-23.56 -64.6)"/><path class="cls-20" d="M130.19,141c4.88-.09,9.76-.18,14.65-.24a8.17,8.17,0,0,1,1.52.25l-3.85,2.84a14.33,14.33,0,0,1-6.85.51c-.69-.16-1.37-.41-2-.62Z" transform="translate(-23.56 -64.6)"/><path class="cls-12" d="M105.48,172.16l-1.37-.71a6.59,6.59,0,0,0-.74-1c-1.67-1.63-2-3.76-2.36-5.7l5.75,4.87C106.33,170.43,105.9,171.3,105.48,172.16Z" transform="translate(-23.56 -64.6)"/><path class="cls-7" d="M54.22,286.53Q54,273.77,53.7,261c0-.76,0-1.51,0-2.27,2.39-1.33,4.81-2.63,7.19-4,5.08-2.9,10.14-5.84,15.22-8.76,2.17-1.26,4.38-2.45,6.49-3.8.39-.25.4-1.09.59-1.66,1.23,2.31,2.37,4.68,3.73,6.92a51,51,0,0,0,4.64,6.77,35.75,35.75,0,0,0,13.2,9.42c1.3.56,2.7.9,4,1.34l.07,11c-.73.86-1.47,1.72-2.2,2.59l-.25.52v0c-.08,0-.18,0-.22,0l-6.75,7.4c-2.87,0-5.75,0-8.62,0Z" transform="translate(-23.56 -64.6)"/><path class="cls-23" d="M106.72,278.6c.73-.87,1.47-1.73,2.2-2.59,4.67.06,9.34.05,14,.2,9.41.3,18.82.61,28.22,1.05,4.26.2,8.5.7,12.75,1.07l.13,2.07h6.26v6.12c-.28,0-.56,0-.84,0h-66.2c-.28,0-.56,0-.84,0l1-1.75q1.56-2.83,3.11-5.67v0Z" transform="translate(-23.56 -64.6)"/><path class="cls-5" d="M180.37,280.35h93l.48,0q.12,3.08.26,6.17l-70.37,0h-9.71c-1.25-.94-2.36-2.21-3.76-2.75-3.25-1.24-6.63-2.13-9.95-3.16Z" transform="translate(-23.56 -64.6)"/><path class="cls-24" d="M274.13,286.54q-.13-3.09-.26-6.17h23.61l0,6.15Z" transform="translate(-23.56 -64.6)"/><path class="cls-23" d="M180.34,280.64c3.32,1,6.7,1.92,9.95,3.16,1.4.54,2.51,1.81,3.76,2.75l-15.34,0q0-3,.11-6.07l.34.07Z" transform="translate(-23.56 -64.6)"/><path class="cls-22" d="M178.82,280.45q-.06,3-.11,6.07h-8.43V280.4Z" transform="translate(-23.56 -64.6)"/><path class="cls-1" d="M106.47,279.1q-1.55,2.83-3.11,5.67l-1,1.75H99.5l6.75-7.4S106.39,279.1,106.47,279.1Z" transform="translate(-23.56 -64.6)"/><path class="cls-25" d="M161.24,125.21H271.61a1.86,1.86,0,0,1,.71,0,4.4,4.4,0,0,1,.81.57,7.56,7.56,0,0,1-.86.52c-.13.07-.31,0-.47,0q-54.68,0-109.33,0C161.84,126.33,160.86,126.65,161.24,125.21Z" transform="translate(-23.56 -64.6)"/><path class="cls-6" d="M279.34,159.41H167.61l-.24-.26a4.53,4.53,0,0,1,.77-.69c.18-.1.47,0,.71,0q54.61,0,109.22,0C278.62,158.46,279.67,158,279.34,159.41Z" transform="translate(-23.56 -64.6)"/><path class="cls-4" d="M264.2,136.36a7,7,0,0,1-.85.57c-.16.08-.39,0-.59,0q-43.83,0-87.65,0c-.52,0-1.51.42-1.21-.91h90Z" transform="translate(-23.56 -64.6)"/><path class="cls-4" d="M253.89,131.6H167.6l-.23-.28a6.15,6.15,0,0,1,.77-.68c.14-.09.39,0,.59,0h84.06C253.36,130.63,254.32,130.31,253.89,131.6Z" transform="translate(-23.56 -64.6)"/><path class="cls-6" d="M161.22,163.83h86.22l.23.28a5.89,5.89,0,0,1-.78.64c-.15.08-.39,0-.59,0H162.39C161.87,164.75,161,165.13,161.22,163.83Z" transform="translate(-23.56 -64.6)"/><path class="cls-4" d="M157.61,120h78.55c.24.55.28,1-.55.93H235q-38.12,0-76.23,0C158.25,120.86,157.27,121.25,157.61,120Z" transform="translate(-23.56 -64.6)"/><path class="cls-25" d="M182.38,141.32h60.83l.06,1c-.25,0-.41.07-.56.07H183.25C182.51,142.41,182,142.31,182.38,141.32Z" transform="translate(-23.56 -64.6)"/><path class="cls-6" d="M173.71,153.68a9.65,9.65,0,0,1,.81-.62c.12-.07.31,0,.47,0h58.59c.52,0,1.43-.35,1.15.91H173.92Z" transform="translate(-23.56 -64.6)"/><path class="cls-6" d="M256.07,148.07a7.8,7.8,0,0,1-.81.61c-.12.07-.32,0-.48,0H182.41l-.24-.31a7.94,7.94,0,0,1,.75-.68c.11-.08.31,0,.47,0h72.38Z" transform="translate(-23.56 -64.6)"/><path class="cls-6" d="M192.8,170.14c-3.64,0-7.27.05-10.91.05h-23a3.8,3.8,0,0,1-1.07,0,.83.83,0,0,1-.43-.56c0-.12.25-.35.43-.44a1.63,1.63,0,0,1,.59,0h34a2.2,2.2,0,0,1,.36,0l.16.16V170Z" transform="translate(-23.56 -64.6)"/><path class="cls-26" d="M149,108.1c0,1-.55,1.58-1.47,1.6a1.33,1.33,0,0,1-1.52-1.45,1.36,1.36,0,0,1,1.43-1.55A1.42,1.42,0,0,1,149,108.1Z" transform="translate(-23.56 -64.6)"/><path class="cls-6" d="M159.83,109.86c-1.09,0-1.66-.53-1.69-1.45a1.36,1.36,0,0,1,1.45-1.53,1.38,1.38,0,0,1,1.56,1.43A1.41,1.41,0,0,1,159.83,109.86Z" transform="translate(-23.56 -64.6)"/><path class="cls-4" d="M155.24,108c0,1.24-.56,1.74-1.46,1.74a1.49,1.49,0,0,1,0-3A1.29,1.29,0,0,1,155.24,108Z" transform="translate(-23.56 -64.6)"/><path class="cls-27" d="M149.78,130.64H151v2.57l-1.19.09Z" transform="translate(-23.56 -64.6)"/><path class="cls-27" d="M149.73,126.64v-2.43H151v2.43Z" transform="translate(-23.56 -64.6)"/><path class="cls-27" d="M149.78,163.08H151v2.56l-1.2.09Z" transform="translate(-23.56 -64.6)"/><path class="cls-27" d="M149.78,137.19H151v2.49l-1.22.09Z" transform="translate(-23.56 -64.6)"/><path class="cls-27" d="M151,152.71h-1.21v-2.56l1.21-.09Z" transform="translate(-23.56 -64.6)"/><path class="cls-27" d="M149.76,146.24v-2.58H151v2.51Z" transform="translate(-23.56 -64.6)"/><path class="cls-27" d="M151,159.18h-1.23v-2.54H151Z" transform="translate(-23.56 -64.6)"/><path class="cls-27" d="M149.68,169.58H151v1.19h-1.23Z" transform="translate(-23.56 -64.6)"/><path class="cls-27" d="M149.75,119H151v1.16h-1.26Z" transform="translate(-23.56 -64.6)"/><path class="cls-28" d="M193,169.33l-.16-.16Z" transform="translate(-23.56 -64.6)"/><path class="cls-28" d="M192.8,170.14,193,170Z" transform="translate(-23.56 -64.6)"/><path class="cls-29" d="M108.85,265c-1.35-.44-2.75-.78-4-1.34a35.75,35.75,0,0,1-13.2-9.42A51,51,0,0,1,87,247.44c-1.36-2.24-2.5-4.61-3.73-6.92-.2-.48-.38-1-.6-1.43-4.77-9.58-8.95-19.42-12.79-29.41a.55.55,0,0,1,.06-.54l1.57,2.12c.47.78.91,1.58,1.41,2.34Q81.41,226.65,90,239.7c.65,1,1,2.4,2.6,2.26,2.65,3.44,5.24,6.93,8,10.31,2.31,2.85,4.7,5.66,8.33,7C108.86,261.15,108.85,263.06,108.85,265Z" transform="translate(-23.56 -64.6)"/><path class="cls-5" d="M108.85,265c0-1.91,0-3.82,0-5.73l5.3,1.39,16.3,2.5c4.85.54,9.7,1.11,14.56,1.59,3.33.33,6.66.56,10,.8s6.67.43,10,.65c1.74.17,3.49.27,5.22.55,1.43.22,2.83.66,4.24,1l0,2-7.53,0c-2.89,0-2.88,0-2.9,3,0,1.86-.08,3.73-.12,5.6-4.25-.37-8.49-.87-12.75-1.07-9.4-.44-18.81-.75-28.22-1.05-4.66-.15-9.33-.14-14-.2C108.9,272.33,108.87,268.65,108.85,265Z" transform="translate(-23.56 -64.6)"/><path class="cls-24" d="M180.34,280.64l-1.18-.12,1.21-.17Z" transform="translate(-23.56 -64.6)"/><path class="cls-3" d="M60.69,102.64A8.06,8.06,0,0,1,68,114.16a1.46,1.46,0,0,0,.39,2c1.29,1.19,2.48,2.49,3.75,3.7.62.59.74,1.09,0,1.67a6.82,6.82,0,0,0-.76.76c-.52.63-1,.51-1.49,0-1.28-1.31-2.63-2.57-3.87-3.91a1.38,1.38,0,0,0-1.94-.35,8.06,8.06,0,0,1-10.9-10.35A8.11,8.11,0,0,1,60.69,102.64Zm-5.61,8a5.53,5.53,0,0,0,5.46,5.75,5.66,5.66,0,0,0,5.85-5.55,5.76,5.76,0,0,0-5.58-5.73A5.64,5.64,0,0,0,55.08,110.6Z" transform="translate(-23.56 -64.6)"/><path class="cls-30" d="M174.47,267.72c-1.41-.34-2.81-.78-4.24-1-1.73-.28-3.48-.38-5.22-.55a5.84,5.84,0,0,1,.46-.81c1.44-1.85,3-3.62,4.3-5.57a29.3,29.3,0,0,0,1.95-4.16,55.68,55.68,0,0,1,15.81,1.43l3.66.94h0a3.47,3.47,0,0,0,.29.25c1.6,1,3.26,1.93,4.78,3.06a10.18,10.18,0,0,1,3.32,4.83c.25,1.63,0,1.95-1.66,2.16a5.42,5.42,0,0,1-4.28-1.06c-.56-.44-1.19-.78-1.79-1.17a10.24,10.24,0,0,0-5.3-1.86c-1.72,0-2.78,1.22-4.16,1.85A18.82,18.82,0,0,1,174.47,267.72Z" transform="translate(-23.56 -64.6)"/><path class="cls-12" d="M191.45,258.25a3.47,3.47,0,0,1-.29-.25Z" transform="translate(-23.56 -64.6)"/><path class="cls-3" d="M137.79,84.51l-1.8-.36,3.74-14.34,1.78.37C140.26,75,139,79.7,137.79,84.51Z" transform="translate(-23.56 -64.6)"/><path class="cls-3" d="M143.62,79.67l5.07-2.18-5.06-2.23.67-1.5c2,.89,3.93,1.72,5.82,2.63a1.49,1.49,0,0,1,0,2.23c-1.87.88-3.77,1.69-5.77,2.58Z" transform="translate(-23.56 -64.6)"/><path class="cls-3" d="M133.88,79.67l-.69,1.53c-2-.89-3.94-1.7-5.83-2.61-.67-.31-.6-1.92.07-2.23,1.87-.89,3.77-1.71,5.76-2.6l.69,1.5-5.11,2.22Z" transform="translate(-23.56 -64.6)"/><path class="cls-17" d="M130.46,263.13l-16.3-2.5a16.45,16.45,0,0,0-.73-2.35,32.64,32.64,0,0,1-2.42-22c.49-2,1.13-4,1.7-6.07l3.77-2.18c1.53,2.08,3,4.16,4.61,6.21.59.79,1.3,1.5,2,2.25-.75.09-1.11.43-1.3,1.27a26.31,26.31,0,0,0-.37,10,22.42,22.42,0,0,0,8.07,14.07A7.55,7.55,0,0,1,130.46,263.13Z" transform="translate(-23.56 -64.6)"/><path class="cls-30" d="M112.71,230.16c-.57,2-1.21,4-1.7,6.07a32.64,32.64,0,0,0,2.42,22,16.45,16.45,0,0,1,.73,2.35l-5.3-1.39c-3.63-1.31-6-4.12-8.33-7-2.73-3.38-5.32-6.87-8-10.31a5.39,5.39,0,0,1,.82-.77q9.48-5.49,19-10.95A1,1,0,0,1,112.71,230.16Z" transform="translate(-23.56 -64.6)"/><path class="cls-26" d="M297,111.38v-1.67c1.47,0,1.68-.91,1.6-2.1-.07-1,0-2,0-3a2.5,2.5,0,0,1,1.41-2.55,2.93,2.93,0,0,1-1.41-3c0-.92-.05-1.84,0-2.75.09-1.15-.23-1.89-1.58-1.88V92.73c2.62-.35,3.89.71,3.91,3.23,0,1.07,0,2.15,0,3.23,0,.77,0,1.48.93,1.84.59.22.37,1.65-.13,2.11a2.24,2.24,0,0,0-.76,1.31c-.11,1.15,0,2.32,0,3.47C301,110.58,299.87,111.57,297,111.38Z" transform="translate(-23.56 -64.6)"/><path class="cls-26" d="M290.85,111.41c-2.91,0-3.79-.81-3.79-3.46,0-1,0-2,0-3,0-.8,0-1.56-1-1.95-.59-.22-.38-1.57.08-2.05a3.22,3.22,0,0,0,.89-1.62,24.83,24.83,0,0,0,0-3.23c0-2.66.87-3.48,3.76-3.45v1.68c-1.4,0-1.64,1-1.56,2.19.07,1,0,2,0,3a2.3,2.3,0,0,1-1.45,2.49,2.56,2.56,0,0,1,1.46,2.78c-.07,1,0,2,0,3s.23,1.9,1.59,1.89Z" transform="translate(-23.56 -64.6)"/><path class="cls-20" d="M108.91,142a10,10,0,0,1,1.52-.22c3.55,0,7.1,0,10.65,0a9.73,9.73,0,0,1,0,1.08c-.15,1.34-.7,2.26-2.11,2.2-2.63-.11-4.14,1.19-5,3.55a14.17,14.17,0,0,1-1.62,2.92c-.24.35-.81.48-1.23.71-.19-.41-.54-.83-.53-1.23a12.17,12.17,0,0,1,.42-3.31c.7-2.1-.35-3.59-1.47-5.1A6.57,6.57,0,0,0,108.91,142Z" transform="translate(-23.56 -64.6)"/><path class="cls-12" d="M100.74,152.5a8.91,8.91,0,0,0,2.34-5.11,8.21,8.21,0,0,0,2.64,6.4c1.29,1.23,1.29,2-.08,3.23a10.49,10.49,0,0,1-2.4,1.52,1.83,1.83,0,0,1-2.72-1.75c0-1.17.22-2.35.32-3.53A3.3,3.3,0,0,0,100.74,152.5Z" transform="translate(-23.56 -64.6)"/><path class="cls-12" d="M109.86,146.29c-.09.6.28,1.57-1,1.26-.16,0-.55.4-.62.67s.16.7.11,1-.2,1-.49,1.16a1.24,1.24,0,0,1-1.18-.34,10.17,10.17,0,0,1-.81-2.91,5.76,5.76,0,0,1,.45-2.07c.27-.88.93-1.66,1.8-1.38.69.22,1.2,1.09,1.72,1.72C109.94,145.62,109.85,146,109.86,146.29Z" transform="translate(-23.56 -64.6)"/><path class="cls-5" d="M182.36,266.06c1.38-.63,2.44-1.88,4.16-1.85a10.24,10.24,0,0,1,5.3,1.86Z" transform="translate(-23.56 -64.6)"/><path class="cls-10" d="M130.46,263.13a7.55,7.55,0,0,0-1-1.39,22.42,22.42,0,0,1-8.07-14.07,26.31,26.31,0,0,1,.37-10c.19-.84.55-1.18,1.3-1.27,2.84,1,5.71,2,8.53,3.09q11.51,4.51,23,9.14c5.54,2.23,11.06,4.52,16.59,6.78.19.08.38.12.57.18a29.3,29.3,0,0,1-1.95,4.16c-1.3,1.95-2.86,3.72-4.3,5.57a5.84,5.84,0,0,0-.46.81c-3.33-.22-6.67-.42-10-.65s-6.66-.47-10-.8C140.16,264.24,135.31,263.67,130.46,263.13Z" transform="translate(-23.56 -64.6)"/><path class="cls-1" d="M106.72,278.6l-.25.52Z" transform="translate(-23.56 -64.6)"/><path class="cls-4" d="M55.08,110.6a5.64,5.64,0,0,1,5.73-5.53,5.76,5.76,0,0,1,5.58,5.73,5.66,5.66,0,0,1-5.85,5.55A5.53,5.53,0,0,1,55.08,110.6Z" transform="translate(-23.56 -64.6)"/></svg>